<svg width="1281" height="111" xmlns="http://www.w3.org/2000/svg" xmlns:xlink="http://www.w3.org/1999/xlink" overflow="hidden"><defs><clipPath id="clip0"><rect x="-1" y="394" width="1281" height="111"/></clipPath></defs><g clip-path="url(#clip0)" transform="translate(1 -394)"><path d="M0 402C28.5266 428.082 183.955 455.698 314.213 458.767 468.927 459.789 751.537 441.839 815.04 448.027 1004.31 468.001 1007.74 520.234 1280 493.816 1279.98 497.317 1279.97 500.34 1279.96 503.005L1279.96 504 0 504Z" fill="#FFFFFF" fill-rule="evenodd"/><path d="M0 395C28.5307 423.274 183.996 452.618 314.259 456.538 484.001 461.646 723.635 433.189 815.158 444.896 886.35 450.929 932.289 465.627 977 479.242 924.97 466.78 879.209 453.685 814.825 450.104 664.613 443.796 530.018 487.848 314.259 485.94 191.185 486.612 65.3447 473.471 0 445.397L0 395Z" fill="#F02E2F" fill-rule="evenodd"/></g></svg>