<svg width="354" height="798" xmlns="http://www.w3.org/2000/svg" xmlns:xlink="http://www.w3.org/1999/xlink" overflow="hidden"><defs><clipPath id="clip0"><rect x="355" y="-95" width="354" height="798"/></clipPath></defs><g clip-path="url(#clip0)" transform="translate(-355 95)"><path d="M644.706-88 705-85.6666 705 408.355C696.591 475.972 663.529 700.779 653.265 680.741 633.22 641.612 609.381 543.949 620.789 508.597 641.711 439.611 667.529 426.216 663.889 383.092 657.845 320.767 624.997 295.476 608.896 238.451 594.768 173.62 635.956 122.154 654.419 62.9449 666.729 20.2542 668.327-29.0985 653.336-68.9982L644.706-88Z" fill="#F02E2F" fill-rule="evenodd"/><path d="M641.946-91 708.833-91C708.833 110.417 709 498.583 709 700 696.967 699.777 709.981 699.889 696.278 700L656.965 699.915C609.999 526.013 625.892 514.335 659.783 417.8 682.752 313.064 634.622 302.754 622.89 239.703 608.194 173.354 638.515 121.684 657.721 61.0894 670.526 17.3996 664.954-33.6198 649.361-74.4532L641.946-91Z" fill="#F5F5F5" fill-rule="evenodd"/><rect x="356" y="0" width="14" height="498" fill="#FFFFFF" fill-opacity="0"/><path d="M628.317-92C693.503-17.4531 639.195 51.272 623.451 78.2872 607.707 105.302 597.041 153.278 613.718 213.118 624.885 258.902 660.76 311.861 663.495 362.126 670.49 410.468 602.614 445.402 598.248 526.479 594.55 574.593 633.935 634.774 604.821 701" stroke="#FAB404" stroke-width="6" stroke-miterlimit="8" fill="none" fill-rule="evenodd"/></g></svg>